<svg version="1.1" xmlns="http://www.w3.org/2000/svg" x="0" y="0" viewBox="0 0 216 216" xml:space="preserve">
  <style>.st2{fill:none}.st3{enable-background:new}</style>
  <path d="M.23-.06h215.55v216.12H.23V-.06z" fill="#fbab20"/>
  <path d="M215.77 216.06H.23L215.77-.06v216.12z" fill="#f3ae51"/>
  <path class="st2" d="M14.83 29.54h190.21v128.41H14.83V29.54z"/>
  <g class="st3">
    <path d="M27.09 78.51v-49h7v21l10.5-21h8.75L42.82 48.76 55.1 78.51h-8.75L37.6 55.76l-3.5 7v15.75h-7.01zM59.62 78.51v-49h19.25v5.25H66.62v15.75h8.75v5.25h-8.75v17.5h12.25v5.25H59.62zM85.13 78.51v-49h7v43.75h12.25v5.25H85.13zM122.36 79.01c-4.41 0-7.78-1.29-10.1-3.88-2.32-2.59-3.62-6.12-3.9-10.61l7-1.75c.35 7 2.68 10.5 7 10.5 3.5 0 5.25-1.75 5.25-5.25 0-1.04-.14-2-.42-2.88-.28-.88-.72-1.7-1.3-2.43s-1.11-1.33-1.59-1.78c-.47-.45-1.12-1-1.94-1.65l-8.75-7c-1.6-1.26-2.88-2.86-3.84-4.8s-1.44-4.15-1.44-6.63c0-3.61 1.12-6.48 3.36-8.61s5.21-3.2 8.91-3.2c3.97 0 7.13.97 9.47 2.91 2.34 1.94 3.79 4.69 4.33 8.24.05.38.12.91.19 1.59l-7 1.75c-.02-.31-.06-.77-.14-1.39-.31-2.22-1.01-4.01-2.09-5.35s-2.67-2.01-4.77-2.01c-1.68 0-2.97.47-3.88 1.41-.91.94-1.37 2.25-1.37 3.92 0 2.75 1.17 5.06 3.5 6.92l8.75 7c4.67 3.77 7 8.29 7 13.54 0 3.59-1.11 6.4-3.32 8.42s-5.17 3.02-8.91 3.02z"/>
  </g>
  <path d="M142.8 78.51v-49h19.25v5.25H149.8v15.75h8.75v5.25h-8.75v17.5h12.25v5.25H142.8zM178.86 78.51V62.76l-10.5-33.25h7l7 24.5 7-24.5h7l-10.5 33.25v15.75h-7z"/>
  <g class="st3">
    <path d="M37.46 146.21c-2.06 0-3.87-.29-5.44-.88-1.57-.58-2.85-1.39-3.86-2.42-1-1.03-1.82-2.31-2.45-3.86-.63-1.54-1.07-3.19-1.33-4.94-.26-1.75-.38-3.73-.38-5.93v-13.97c0-2.21.13-4.18.38-5.93s.7-3.39 1.33-4.94c.63-1.54 1.44-2.82 2.45-3.84 1-1.02 2.29-1.82 3.86-2.41 1.57-.58 3.38-.88 5.44-.88 2.28 0 4.25.34 5.91 1.01 1.66.67 2.98 1.67 3.98 2.98.99 1.31 1.74 2.83 2.24 4.57.5 1.73.8 3.76.89 6.07.02.35.03.88.03 1.61h-7v-1.56c-.02-.97-.05-1.79-.11-2.47s-.16-1.39-.3-2.12c-.15-.73-.36-1.33-.64-1.82a6.12 6.12 0 0 0-1.07-1.34c-.43-.41-.97-.71-1.63-.9s-1.42-.29-2.3-.29c-1.13 0-2.1.18-2.91.55-.81.37-1.44.83-1.9 1.41-.46.57-.81 1.34-1.05 2.31-.25.97-.41 1.91-.48 2.83-.07.92-.11 2.06-.11 3.4v17.5c0 1.17.05 2.22.15 3.17.1.95.3 1.89.59 2.83.29.94.67 1.73 1.13 2.37.46.64 1.08 1.15 1.86 1.54.77.39 1.68.59 2.72.59s1.93-.2 2.68-.6c.75-.4 1.33-.91 1.76-1.53.43-.62.77-1.41 1.01-2.38.25-.97.41-1.9.48-2.82.07-.91.11-1.97.11-3.17v-1.75h7v1.75c0 2.53-.22 4.76-.67 6.67-.45 1.91-1.17 3.61-2.16 5.07-.99 1.47-2.34 2.58-4.05 3.35-1.7.78-3.75 1.17-6.16 1.17zM67.79 146.21c-2.46 0-4.57-.37-6.33-1.12-1.76-.75-3.16-1.84-4.2-3.28-1.04-1.44-1.8-3.13-2.27-5.07-.47-1.94-.71-4.2-.71-6.77V112.2c0-2.57.24-4.81.71-6.73.47-1.91 1.23-3.58 2.27-4.99 1.04-1.41 2.44-2.47 4.2-3.19 1.76-.71 3.87-1.07 6.33-1.07 4.78 0 8.22 1.37 10.34 4.1 2.11 2.73 3.17 6.69 3.17 11.87v17.77c0 2.53-.24 4.77-.72 6.71-.48 1.94-1.24 3.64-2.28 5.09s-2.44 2.55-4.2 3.31c-1.77.76-3.87 1.14-6.31 1.14zm-5.1-7.96c.94 1.48 2.64 2.21 5.1 2.21s4.16-.74 5.1-2.21c.94-1.48 1.41-3.65 1.41-6.54v-21.27c0-2.84-.46-4.97-1.39-6.37-.93-1.4-2.63-2.11-5.11-2.11-2.48 0-4.18.7-5.11 2.11-.93 1.4-1.39 3.53-1.39 6.37v21.27c-.02 2.88.45 5.06 1.39 6.54zM100.05 146.21c-2.46 0-4.57-.37-6.33-1.12-1.76-.75-3.16-1.84-4.2-3.28-1.04-1.44-1.8-3.13-2.27-5.07-.47-1.94-.71-4.2-.71-6.77V112.2c0-2.57.24-4.81.71-6.73.47-1.91 1.23-3.58 2.27-4.99 1.04-1.41 2.44-2.47 4.2-3.19 1.76-.71 3.87-1.07 6.33-1.07 4.78 0 8.22 1.37 10.34 4.1s3.17 6.69 3.17 11.87v17.77c0 2.53-.24 4.77-.72 6.71s-1.24 3.64-2.28 5.09-2.44 2.55-4.2 3.31c-1.76.76-3.87 1.14-6.31 1.14zm-5.1-7.96c.94 1.48 2.64 2.21 5.1 2.21s4.16-.74 5.1-2.21c.94-1.48 1.41-3.65 1.41-6.54v-21.27c0-2.84-.46-4.97-1.39-6.37-.93-1.4-2.63-2.11-5.11-2.11-2.48 0-4.18.7-5.11 2.11-.93 1.4-1.39 3.53-1.39 6.37v21.27c-.02 2.88.45 5.06 1.39 6.54zM119.68 145.71v-49h12.25c8.17 0 12.25 4.67 12.25 14 0 3.99-1.05 7.03-3.16 9.12-2.11 2.09-5.14 3.13-9.09 3.13h-5.25v22.75h-7zm7-28h1.75c1.59 0 2.88-.09 3.9-.27 1.01-.18 1.9-.52 2.68-1.03.77-.5 1.33-1.22 1.67-2.15.34-.93.51-2.11.51-3.55 0-1.75-.13-3.17-.38-4.25-.26-1.08-.72-1.97-1.41-2.67-.68-.69-1.57-1.17-2.65-1.44-1.08-.26-2.52-.4-4.31-.4h-1.75v15.76zM148.15 145.71v-49h19.25v5.25h-12.25v15.75h8.75v5.25h-8.75v17.5h12.25v5.25h-19.25zM171.69 145.71v-49h8.75c5.21 0 9.14 1.01 11.79 3.04 2.64 2.02 3.96 5.39 3.96 10.09 0 2.92-.52 5.36-1.56 7.33s-2.56 3.32-4.57 4.05l7.88 24.5H191l-7.05-22.75h-5.25v22.75h-7.01zm7-28h1.75c2.92 0 5.1-.62 6.56-1.85s2.19-3.24 2.19-6.03-.73-4.8-2.19-6.03c-1.46-1.23-3.65-1.85-6.56-1.85h-1.75v15.76z"/>
  </g>
  <path class="st2" d="M20 163.63h176.01v57.77H20v-57.77z"/>
  <g class="st3">
    <path d="M28.2 188.84l-4.22-25.21h2.08l3.44 21.56 3.25-21.56h2.83l2.97 21.56 3.43-21.56h2.07l-4.19 25.21H37.3l-3.15-22.27-3.4 22.27H28.2zM46.65 180.75v-2.45c.01-1.22.1-2.28.26-3.17.17-.89.38-1.61.65-2.15s.62-.96 1.04-1.28.86-.53 1.31-.64.98-.17 1.58-.17c1.57 0 2.7.56 3.39 1.67s1.03 2.87 1.03 5.27c0 .73-.01 1.33-.03 1.8h-7.03v2.68c0 1.15.06 2.1.17 2.83s.29 1.29.53 1.66.51.62.81.75.66.19 1.11.19c.65 0 1.2-.33 1.65-.99.44-.66.67-1.76.68-3.3h2.05c-.06.66-.14 1.25-.23 1.77s-.25 1.04-.46 1.55-.47.95-.78 1.29-.71.62-1.19.83-1.05.32-1.68.32c-1.24 0-2.2-.25-2.89-.74s-1.19-1.35-1.52-2.58-.47-2.92-.45-5.14zm2.22-2.2h4.86c-.01-.39-.01-.79 0-1.19s0-.8-.01-1.21-.05-.79-.08-1.17-.1-.71-.2-1.03-.22-.59-.37-.83-.35-.42-.6-.56-.55-.21-.88-.21c-.54 0-.98.1-1.33.29s-.62.42-.81.69-.33.71-.42 1.33-.14 1.17-.15 1.65-.01 1.24-.01 2.24zM59.96 188.84v-25.21h2.2v9.32c.46-.67.98-1.18 1.57-1.53s1.19-.52 1.81-.52c.42 0 .79.04 1.1.12.31.08.65.29 1.03.63.37.34.67.8.91 1.38s.43 1.42.59 2.51.24 2.39.24 3.9v1.39c0 1.05-.04 2.01-.12 2.86s-.19 1.56-.32 2.13c-.13.57-.3 1.07-.51 1.49-.21.42-.41.76-.62 1s-.44.43-.7.57c-.26.14-.5.23-.72.28-.21.04-.45.07-.72.07-1.48 0-2.67-.68-3.54-2.05v1.66h-2.2zm7.25-7.99v-1.39c0-1.07-.02-2.01-.07-2.81s-.13-1.45-.24-1.94c-.11-.49-.22-.89-.34-1.2-.11-.31-.26-.53-.44-.67s-.34-.22-.48-.26-.32-.06-.53-.06c-.92 0-1.9.58-2.94 1.74v11.57c.44.53.92.96 1.44 1.28s1 .49 1.44.49c.2 0 .35-.01.48-.03s.27-.07.44-.16.31-.22.42-.4.22-.43.34-.75.21-.73.28-1.19.12-1.06.17-1.77.03-1.53.03-2.45zM81.02 188.84v-25.21h5.67c.96 0 1.81.13 2.55.39.74.26 1.35.61 1.84 1.05.48.45.88.99 1.19 1.63s.53 1.33.66 2.05.2 1.52.2 2.39v10.25c0 4.96-2.14 7.44-6.43 7.44h-5.68zm2.23-1.79h3.44c2.8 0 4.2-1.72 4.2-5.16v-11.25c0-3.49-1.4-5.23-4.2-5.23h-3.44v21.64zM97.36 180.75v-2.45c.01-1.22.1-2.28.26-3.17.17-.89.38-1.61.65-2.15s.62-.96 1.04-1.28.86-.53 1.31-.64.98-.17 1.58-.17c1.57 0 2.7.56 3.39 1.67s1.03 2.87 1.03 5.27c0 .73-.01 1.33-.03 1.8h-7.03v2.68c0 1.15.06 2.1.17 2.83s.29 1.29.53 1.66.51.62.81.75.66.19 1.11.19c.65 0 1.2-.33 1.65-.99.44-.66.67-1.76.68-3.3h2.05c-.06.66-.14 1.25-.23 1.77s-.25 1.04-.46 1.55-.47.95-.78 1.29-.71.62-1.19.83-1.05.32-1.68.32c-1.24 0-2.2-.25-2.89-.74s-1.19-1.35-1.52-2.58-.46-2.92-.45-5.14zm2.23-2.2h4.86c-.01-.39-.01-.79 0-1.19s0-.8-.01-1.21-.05-.79-.08-1.17-.1-.71-.2-1.03-.22-.59-.37-.83-.35-.42-.6-.56-.55-.21-.88-.21c-.54 0-.98.1-1.33.29s-.62.42-.81.69-.33.71-.42 1.33-.14 1.17-.15 1.65-.01 1.24-.01 2.24zM113.27 188.84l-3.98-17.55h2.14l3.13 15.56 2.84-15.56h2.09l-3.66 17.55h-2.56zM122.31 180.75v-2.45c.01-1.22.1-2.28.26-3.17.17-.89.38-1.61.65-2.15s.62-.96 1.04-1.28.86-.53 1.31-.64.98-.17 1.58-.17c1.57 0 2.7.56 3.39 1.67s1.03 2.87 1.03 5.27c0 .73-.01 1.33-.03 1.8h-7.03v2.68c0 1.15.06 2.1.17 2.83s.29 1.29.54 1.66.51.62.81.75.66.19 1.11.19c.65 0 1.2-.33 1.65-.99.44-.66.67-1.76.68-3.3h2.05c-.06.66-.14 1.25-.23 1.77s-.25 1.04-.46 1.55-.47.95-.78 1.29-.71.62-1.19.83-1.05.32-1.68.32c-1.24 0-2.21-.25-2.89-.74-.69-.49-1.19-1.35-1.52-2.58s-.48-2.92-.46-5.14zm2.23-2.2h4.86c-.01-.39-.01-.79 0-1.19s0-.8-.01-1.21-.05-.79-.08-1.17-.1-.71-.2-1.03-.22-.59-.37-.83-.35-.42-.6-.56-.55-.21-.88-.21c-.54 0-.98.1-1.33.29s-.62.42-.81.69-.33.71-.42 1.33-.14 1.17-.15 1.65-.01 1.24-.01 2.24zM136 188.84v-25.21h2.2v25.21H136zM142.88 180.52v-.91c0-.78 0-1.38.01-1.79.01-.41.04-.98.09-1.7.05-.72.14-1.28.25-1.68.11-.4.28-.86.5-1.38s.5-.91.83-1.18.74-.5 1.24-.7 1.07-.29 1.71-.29 1.22.1 1.71.29.91.43 1.24.7c.33.27.6.66.83 1.18s.39.98.5 1.38.2.96.25 1.68c.05.72.08 1.29.09 1.7.01.42.01 1.01.01 1.79v.91c0 .65 0 1.15-.01 1.48s-.02.79-.04 1.38c-.03.59-.06 1.05-.12 1.37-.05.32-.13.72-.24 1.2s-.24.85-.39 1.11-.34.55-.58.87-.5.56-.81.72c-.3.16-.66.3-1.08.41s-.88.17-1.38.17-.97-.06-1.38-.17c-.42-.11-.77-.25-1.08-.41-.3-.16-.57-.4-.81-.72s-.43-.61-.58-.87c-.15-.26-.28-.63-.39-1.11s-.19-.88-.24-1.2-.09-.78-.12-1.37c-.02-.59-.04-1.05-.04-1.38.03-.34.03-.83.03-1.48zm2.2-.91v.91c0 2.75.16 4.65.48 5.68s.98 1.55 1.96 1.55 1.64-.52 1.96-1.55.48-2.93.48-5.68v-.91c0-.93-.01-1.71-.03-2.34s-.06-1.24-.12-1.82c-.06-.58-.15-1.05-.26-1.4s-.26-.66-.44-.93-.4-.46-.66-.57c-.26-.11-.57-.17-.93-.17s-.67.06-.93.17c-.26.11-.48.3-.67.57s-.33.58-.44.92c-.11.35-.19.82-.26 1.41-.06.59-.11 1.2-.12 1.82s-.02 1.4-.02 2.34zM156.47 194.48v-23.19h2.2v1.66c.88-1.37 2.06-2.05 3.54-2.05.26 0 .5.02.72.07.21.04.45.14.72.28s.5.33.7.57c.21.24.41.57.62 1 .21.43.37.92.51 1.49.13.57.24 1.28.32 2.13.08.85.12 1.8.12 2.86v1.39c0 1.51-.08 2.82-.24 3.9-.16 1.09-.36 1.93-.59 2.51s-.54 1.05-.91 1.38c-.37.34-.71.55-1.03.63-.31.08-.68.12-1.1.12-.62 0-1.22-.17-1.81-.52-.59-.35-1.12-.86-1.57-1.53v7.29h-2.2zm7.25-13.82v-1.39c0-.92-.02-1.73-.07-2.45-.04-.71-.1-1.3-.17-1.77s-.16-.87-.28-1.19c-.12-.33-.23-.58-.34-.75s-.25-.31-.42-.4a1.49 1.49 0 0 0-.44-.16c-.12-.02-.28-.03-.48-.03-.44 0-.92.16-1.44.49-.52.33-1 .75-1.44 1.28v11.57c1.04 1.16 2.03 1.74 2.94 1.74.21 0 .39-.02.53-.06s.3-.13.48-.26c.18-.14.33-.36.44-.67.11-.31.22-.71.34-1.2s.19-1.14.24-1.94.11-1.73.11-2.81zM170.04 180.75v-2.45c.01-1.22.1-2.28.26-3.17.17-.89.38-1.61.65-2.15.27-.54.62-.96 1.04-1.28.43-.32.86-.53 1.31-.64s.98-.17 1.58-.17c1.57 0 2.7.56 3.39 1.67.69 1.11 1.03 2.87 1.03 5.27 0 .73-.01 1.33-.03 1.8h-7.03v2.68c0 1.15.06 2.1.17 2.83.11.74.29 1.29.53 1.66s.51.62.81.75.66.19 1.11.19c.65 0 1.2-.33 1.65-.99.44-.66.67-1.76.68-3.3h2.05c-.06.66-.14 1.25-.23 1.77s-.25 1.04-.46 1.55-.47.95-.78 1.29c-.31.34-.71.62-1.19.83s-1.05.32-1.68.32c-1.24 0-2.21-.25-2.89-.74-.69-.49-1.19-1.35-1.52-2.58s-.47-2.92-.45-5.14zm2.23-2.2h4.86c-.01-.39-.01-.79 0-1.19s0-.8-.01-1.21-.05-.79-.08-1.17-.1-.71-.2-1.03-.22-.59-.37-.83-.35-.42-.6-.56-.55-.21-.88-.21c-.54 0-.98.1-1.33.29s-.62.42-.8.69c-.19.26-.33.71-.42 1.33s-.14 1.17-.15 1.65c-.01.5-.02 1.24-.02 2.24zM183.35 188.84v-17.55h2.2v2.48c.27-.91.77-1.59 1.48-2.04.71-.45 1.45-.69 2.21-.71v2.21a.974.974 0 0 0-.34-.06c-2.24 0-3.35.86-3.35 2.58v13.1h-2.2z"/>
  </g>
  <path d="M10.11 10.11h195.78v195.78H10.11V10.11z" fill="none" stroke="#fff" stroke-width="2" stroke-miterlimit="10"/>
  </svg>